<?xml version="1.0" encoding="UTF-8"?> <svg xmlns="http://www.w3.org/2000/svg" width="792" height="269" viewBox="0 0 792 269" fill="none"><g clip-path="url(#clip0_2026_463)"><path d="M792 0.32959H0V268.784H792V0.32959Z" fill="url(#paint0_linear_2026_463)"></path><path d="M45.7505 162.658L77.5747 159.567C79.4859 170.253 83.3746 178.097 89.2242 183.099C95.0739 188.101 102.984 190.611 112.922 190.611C123.458 190.611 131.385 188.384 136.736 183.93C142.071 179.476 144.746 174.258 144.746 168.292C144.746 164.47 143.616 161.213 141.373 158.52C139.129 155.828 135.207 153.502 129.607 151.507C125.768 150.178 117.043 147.818 103.416 144.445C85.8839 140.107 73.5863 134.756 66.5235 128.424C56.5857 119.517 51.6168 108.648 51.6168 95.8357C51.6168 87.5929 53.96 79.8653 58.6297 72.6862C63.2995 65.507 70.0466 60.0396 78.8544 56.2838C87.6621 52.528 98.2813 50.6501 110.728 50.6501C131.053 50.6501 146.358 55.1039 156.628 64.0114C166.899 72.9188 172.3 84.8176 172.815 99.6911L140.11 101.12C138.714 92.7945 135.706 86.8118 131.103 83.1724C126.499 79.533 119.586 77.705 110.396 77.705C101.206 77.705 93.4619 79.6493 88.0776 83.5546C84.6209 86.064 82.8926 89.4043 82.8926 93.6088C82.8926 97.4476 84.5046 100.721 87.7452 103.447C91.8666 106.904 101.887 110.51 117.791 114.265C133.695 118.021 145.461 121.91 153.089 125.915C160.717 129.937 166.683 135.421 170.987 142.384C175.291 149.347 177.451 157.939 177.451 168.176C177.451 177.449 174.875 186.14 169.724 194.25C164.572 202.36 157.277 208.376 147.854 212.314C138.431 216.253 126.682 218.23 112.606 218.23C92.1325 218.23 76.4114 213.494 65.4267 204.038C54.4585 194.582 47.8943 180.789 45.7671 162.658H45.7505Z" fill="white"></path><path d="M308.571 155.812L340.278 165.866C335.426 183.548 327.333 196.676 316.032 205.251C304.732 213.826 290.39 218.131 273.007 218.131C251.503 218.131 233.821 210.785 219.978 196.095C206.135 181.404 199.205 161.312 199.205 135.836C199.205 108.881 206.168 87.9419 220.078 73.0352C233.987 58.1284 252.301 50.6667 274.985 50.6667C294.794 50.6667 310.897 56.5164 323.261 68.2324C330.623 75.1623 336.157 85.1001 339.83 98.0625L307.457 105.79C305.546 97.3978 301.541 90.767 295.475 85.8978C289.393 81.0452 282.014 78.6023 273.323 78.6023C261.324 78.6023 251.569 82.9065 244.108 91.5315C236.629 100.156 232.89 114.099 232.89 133.41C232.89 153.884 236.58 168.475 243.942 177.166C251.304 185.858 260.876 190.195 272.658 190.195C281.35 190.195 288.828 187.436 295.093 181.902C301.358 176.385 305.845 167.694 308.571 155.828V155.812Z" fill="white"></path><path d="M360.952 155.031C360.952 144.727 363.495 134.739 368.58 125.084C373.665 115.429 380.861 108.067 390.184 102.982C399.507 97.8964 409.91 95.3538 421.393 95.3538C439.142 95.3538 453.683 101.12 465.033 112.637C476.367 124.17 482.05 138.728 482.05 156.327C482.05 173.926 476.317 188.783 464.867 200.465C453.417 212.148 438.992 217.981 421.609 217.981C410.857 217.981 400.603 215.555 390.848 210.686C381.093 205.833 373.665 198.704 368.58 189.314C363.495 179.925 360.952 168.491 360.952 155.014V155.031ZM392.776 156.692C392.776 168.325 395.535 177.249 401.069 183.431C406.586 189.613 413.4 192.705 421.509 192.705C429.619 192.705 436.399 189.613 441.9 183.431C447.384 177.249 450.126 168.259 450.126 156.476C450.126 144.694 447.384 136.152 441.9 129.953C436.416 123.771 429.619 120.68 421.509 120.68C413.4 120.68 406.586 123.771 401.069 129.953C395.551 136.135 392.776 145.059 392.776 156.692Z" fill="white"></path><path d="M613.934 215.355H585.101V198.122C580.315 204.819 574.664 209.821 568.15 213.095C561.636 216.369 555.055 218.014 548.424 218.014C534.946 218.014 523.397 212.58 513.791 201.712C504.186 190.843 499.366 175.687 499.366 156.244C499.366 136.8 504.036 121.245 513.392 110.892C522.749 100.539 534.564 95.3702 548.856 95.3702C561.968 95.3702 573.302 100.821 582.891 111.723V53.3921H613.934V215.355ZM531.074 154.15C531.074 166.68 532.803 175.737 536.259 181.321C541.261 189.431 548.258 193.469 557.248 193.469C564.394 193.469 570.46 190.428 575.479 184.362C580.481 178.28 582.99 169.206 582.99 157.124C582.99 143.647 580.564 133.942 575.695 128.009C570.842 122.076 564.61 119.118 557.032 119.118C549.454 119.118 543.505 122.043 538.519 127.909C533.534 133.775 531.058 142.517 531.058 154.15H531.074Z" fill="white"></path><path d="M712.481 178.014L743.408 183.199C739.436 194.549 733.154 203.174 724.579 209.107C716.004 215.04 705.268 217.998 692.373 217.998C671.965 217.998 656.876 211.334 647.071 198.006C639.343 187.32 635.471 173.843 635.471 157.573C635.471 138.13 640.556 122.907 650.71 111.889C660.881 100.888 673.727 95.3704 689.265 95.3704C706.714 95.3704 720.491 101.137 730.578 112.654C740.666 124.187 745.485 141.835 745.053 165.633H667.279C667.495 174.84 670.004 182.002 674.79 187.121C679.576 192.239 685.542 194.798 692.688 194.798C697.541 194.798 701.629 193.469 704.953 190.827C708.26 188.184 710.769 183.897 712.464 178.014H712.481ZM714.242 146.638C714.026 137.648 711.7 130.817 707.279 126.148C702.859 121.478 697.491 119.135 691.143 119.135C684.363 119.135 678.762 121.611 674.358 126.53C669.938 131.466 667.761 138.163 667.844 146.638H714.242Z" fill="white"></path><path d="M742.677 61.0699C742.643 71.7389 734.018 80.314 723.333 80.314C712.614 80.314 703.806 71.4398 703.889 60.7707C703.972 50.1682 712.697 41.5432 723.333 41.5432C734.185 41.5432 742.71 50.1516 742.677 61.0699ZM738.921 60.9535C738.921 52.2621 732.091 45.3655 723.433 45.3156C714.741 45.2657 707.628 52.3618 707.678 61.0533C707.728 69.5785 714.808 76.5582 723.399 76.5416C732.057 76.525 738.937 69.6284 738.937 60.9535H738.921Z" fill="black"></path><path d="M715.821 69.9607V50.999H724.23C725.925 50.999 727.205 51.1652 728.086 51.5142C728.966 51.8632 729.664 52.4614 730.196 53.3256C730.728 54.1898 730.994 55.137 730.994 56.184C730.994 57.5301 730.562 58.6601 729.681 59.5908C728.817 60.5214 727.471 61.103 725.643 61.3523C726.308 61.6681 726.806 61.9838 727.155 62.2996C727.886 62.9643 728.584 63.8118 729.232 64.8256L732.539 69.9939H729.382L726.873 66.0553C726.141 64.9086 725.543 64.0445 725.061 63.4462C724.579 62.848 724.164 62.4159 723.782 62.1832C723.399 61.934 723.017 61.7678 722.635 61.6847C722.352 61.6182 721.887 61.6016 721.239 61.6016H718.331V70.0271H715.821V69.9607ZM718.331 59.3581H723.732C724.878 59.3581 725.776 59.2418 726.424 59.0091C727.072 58.7765 727.571 58.3942 727.903 57.8624C728.235 57.3473 728.401 56.7656 728.401 56.1674C728.401 55.27 728.069 54.5388 727.421 53.9571C726.773 53.3755 725.742 53.0929 724.33 53.0929H718.331V59.3747V59.3581Z" fill="black" stroke="black" stroke-width="2" stroke-miterlimit="10"></path></g><defs><linearGradient id="paint0_linear_2026_463" x1="396" y1="0.32959" x2="396" y2="271.592" gradientUnits="userSpaceOnUse"><stop stop-color="#BEEB10"></stop><stop offset="1" stop-color="#789600"></stop></linearGradient><clipPath id="clip0_2026_463"><rect width="792" height="268.454" fill="white" transform="translate(0 0.32959)"></rect></clipPath></defs></svg> 